<?xml version="1.0" encoding="UTF-8"?>
<svg width="25px" height="25px" viewBox="0 0 25 25" version="1.1" xmlns="http://www.w3.org/2000/svg" xmlns:xlink="http://www.w3.org/1999/xlink">
    <!-- Generator: sketchtool 52.6 (67491) - http://www.bohemiancoding.com/sketch -->
    <title>BCD0EE97-8D96-45B5-B791-A16D5266934F</title>
    <desc>Created with sketchtool.</desc>
    <g id="Page-1" stroke="none" stroke-width="1" fill="none" fill-rule="evenodd">
        <g id="BioDati-Studio-demo" transform="translate(-765.000000, -690.000000)" fill="#FFFFFF">
            <g id="questions" transform="translate(765.000000, 686.000000)">
                <path d="M18.5344828,24.2586207 L18.1189325,24.2586207 C17.588681,23.6982103 16.0182916,22.1242935 14.5862507,21.8416532 L8.5590051,21.8416532 C7.64088987,21.8416532 6.89655172,21.0858382 6.89655172,20.1536721 L6.89655172,11.2915148 C6.89655172,10.3592633 7.64088987,9.60344828 8.5590051,9.60344828 L16.8720294,9.60344828 C17.7901446,9.60344828 18.5344828,10.3592633 18.5344828,11.2915148 L18.5344828,24.2586207 Z M12.5,4 C5.59649869,4 0,9.5964798 0,16.4999578 C0,23.4035202 5.59649869,29 12.5,29 C19.4035857,29 25,23.4035202 25,16.4999578 C25,9.5964798 19.4035857,4 12.5,4 Z" id="chat-icon"></path>
            </g>
        </g>
    </g>
</svg>