<?xml version="1.0" encoding="UTF-8"?>
<svg width="18px" height="19px" viewBox="0 0 18 19" version="1.1" xmlns="http://www.w3.org/2000/svg" xmlns:xlink="http://www.w3.org/1999/xlink">
    <!-- Generator: sketchtool 52.6 (67491) - http://www.bohemiancoding.com/sketch -->
    <title>B664EC46-7459-4696-BFC1-93C6877B7F7D</title>
    <desc>Created with sketchtool.</desc>
    <g id="Page-1" stroke="none" stroke-width="1" fill="none" fill-rule="evenodd">
        <g id="BioDati-Studio-demo" transform="translate(-62.000000, -675.000000)" fill="#9C9EA3">
            <g id="Left-content" transform="translate(60.000000, 180.000000)">
                <g id="clean-up-note" transform="translate(2.000000, 490.500000)">
                    <path d="M8.9834879,5.00001463 C6.57856452,5.00433318 4.3950121,5.95201789 2.78292339,7.49261341 L1.48685081,6.19654189 C0.938141129,5.64783265 0,6.03642911 0,6.81238816 L0,11.6774286 C0,12.1584564 0.389939516,12.5483956 0.870967742,12.5483956 L5.7360121,12.5483956 C6.51197177,12.5483956 6.90056855,11.6102552 6.35189516,11.061546 L4.83677419,9.54642626 C5.95683871,8.49767308 7.40616532,7.91673807 8.94592742,7.90345582 C12.2990806,7.87449617 15.1255524,10.5881028 15.0965565,14.0525557 C15.0690484,17.3390409 12.4046129,20.0967766 9,20.0967766 C7.5074879,20.0967766 6.09688306,19.5641076 4.98520161,18.5886971 C4.81307661,18.4376932 4.55312903,18.4468747 4.39120161,18.6087657 L2.95185484,20.0481113 C2.77504839,20.2249176 2.78379435,20.5131714 2.96934677,20.6807599 C4.56525,22.1222467 6.68010484,23 9,23 C13.9705403,23 17.9999637,18.9705799 18,14.0000799 C18.0000363,9.03524119 13.9483306,4.99112351 8.9834879,5.00001463 Z" id="reset-icon"></path>
                </g>
            </g>
        </g>
    </g>
</svg>